<svg width="360.521" height="43.605" viewBox="0 0 360.521 43.605" xmlns="http://www.w3.org/2000/svg"><g id="svgGroup" stroke-linecap="round" fill-rule="evenodd" font-size="9pt" stroke="white" stroke-width="0.25mm" fill="white" style="stroke:#fff;stroke-width:0.25mm;fill:white"><path d="M 74.84 23.36 L 74.84 18.56 A 15.555 15.555 0 0 0 74.616 15.781 C 74.047 12.667 72.397 11.063 69.651 10.769 A 9.153 9.153 0 0 0 68.68 10.72 A 8.006 8.006 0 0 0 64.808 11.683 C 63.75 12.248 62.7 13.087 61.625 14.259 A 19.68 19.68 0 0 0 61.08 14.88 C 60.28 12.04 58.4 10.72 55.52 10.72 A 8.165 8.165 0 0 0 50.652 12.356 C 49.927 12.874 49.216 13.515 48.511 14.281 A 19.402 19.402 0 0 0 48.12 14.72 L 47.84 11.12 L 47.28 10.76 L 39.6 13.2 L 39.6 14.2 L 42.76 14.52 A 39.754 39.754 0 0 1 42.848 15.792 C 42.92 17.142 42.92 18.46 42.92 20.48 L 42.92 23.36 C 42.92 25.56 42.88 28.88 42.84 31.16 L 39.92 31.52 L 39.92 32.76 L 50.88 32.76 L 50.88 31.52 L 48.28 31.2 A 506.443 506.443 0 0 1 48.259 29.871 C 48.227 27.743 48.2 25.162 48.2 23.36 L 48.2 16.28 A 13.815 13.815 0 0 1 49.879 14.864 C 50.454 14.459 51.025 14.143 51.587 13.928 A 4.627 4.627 0 0 1 53.24 13.6 C 55.243 13.6 56.246 14.742 56.351 17.938 A 17.777 17.777 0 0 1 56.36 18.52 L 56.36 23.36 A 261.892 261.892 0 0 1 56.356 24.731 C 56.345 26.741 56.315 29.117 56.284 30.943 A 480.657 480.657 0 0 1 56.28 31.16 L 53.4 31.52 L 53.4 32.76 L 64.24 32.76 L 64.24 31.52 L 61.64 31.2 A 139.829 139.829 0 0 1 61.599 29.825 C 61.548 27.806 61.522 25.405 61.52 23.577 A 202.83 202.83 0 0 1 61.52 23.36 L 61.52 18.48 C 61.52 17.68 61.48 16.92 61.36 16.24 C 62.419 15.204 63.425 14.486 64.408 14.063 A 5.394 5.394 0 0 1 66.56 13.6 A 3.353 3.353 0 0 1 68.051 13.891 C 69.029 14.371 69.566 15.504 69.664 17.709 A 17.501 17.501 0 0 1 69.68 18.48 L 69.68 23.36 A 261.892 261.892 0 0 1 69.676 24.731 C 69.665 26.741 69.635 29.117 69.604 30.943 A 480.657 480.657 0 0 1 69.6 31.16 L 66.84 31.52 L 66.84 32.76 L 77.64 32.76 L 77.64 31.52 L 74.92 31.2 A 530.115 530.115 0 0 1 74.898 29.825 C 74.866 27.725 74.84 25.213 74.84 23.36 Z M 35.6 31.2 L 28.24 17.8 L 33.2 13.08 L 37.2 12.64 L 37.2 11.36 L 26.88 11.36 L 26.88 12.64 L 30.72 13.2 L 22.32 21.48 L 22.32 6.72 L 22.48 0.36 L 21.92 0 L 13.88 1.72 L 13.88 2.84 L 17.12 3.08 L 17.12 23.36 C 17.12 25.533 17.082 28.647 17.044 30.949 A 523.808 523.808 0 0 1 17.04 31.16 L 14.04 31.52 L 14.04 32.76 L 25.28 32.76 L 25.28 31.52 L 22.44 31.2 C 22.361 28.954 22.321 25.815 22.32 23.466 A 211.314 211.314 0 0 1 22.32 23.36 L 24.6 21.2 L 30.72 32.76 L 38.32 32.76 L 38.32 31.52 L 35.6 31.2 Z M 253.72 23.36 L 253.72 18.56 C 253.72 13 251.4 10.72 247.6 10.72 A 8.566 8.566 0 0 0 242.085 12.733 C 241.356 13.31 240.64 14.012 239.92 14.84 L 239.92 6.72 L 240.08 0.36 L 239.48 0 L 231.56 1.72 L 231.56 2.84 L 234.8 3.08 L 234.8 23.36 C 234.8 25.56 234.76 28.88 234.72 31.16 L 231.8 31.52 L 231.8 32.76 L 242.68 32.76 L 242.68 31.52 L 240.12 31.2 A 136.444 136.444 0 0 1 240.081 29.871 C 240.031 27.911 240.004 25.567 240.001 23.801 A 199.724 199.724 0 0 1 240 23.36 L 240 16.16 C 241.821 14.487 243.436 13.678 244.939 13.572 A 4.847 4.847 0 0 1 245.28 13.56 C 247.296 13.56 248.448 14.688 248.517 17.927 A 14.789 14.789 0 0 1 248.52 18.24 L 248.52 23.36 A 262.386 262.386 0 0 1 248.516 24.706 C 248.506 26.646 248.478 28.941 248.448 30.72 A 437.723 437.723 0 0 1 248.44 31.16 L 245.56 31.52 L 245.56 32.76 L 256.52 32.76 L 256.52 31.52 L 253.8 31.2 A 530.115 530.115 0 0 1 253.778 29.825 C 253.746 27.725 253.72 25.213 253.72 23.36 Z M 102.16 23.36 L 102.16 18.48 C 102.16 13.12 99.8 10.72 96.04 10.72 A 8.251 8.251 0 0 0 92.18 11.66 C 90.935 12.303 89.7 13.303 88.455 14.743 A 19.18 19.18 0 0 0 88.44 14.76 L 88.16 11.12 L 87.6 10.76 L 79.92 13.2 L 79.92 14.2 L 83.08 14.52 A 86.82 86.82 0 0 1 83.148 15.732 C 83.2 16.812 83.227 17.848 83.236 19.2 A 186.668 186.668 0 0 1 83.24 20.48 L 83.24 23.36 C 83.24 25.56 83.2 28.88 83.16 31.16 L 80.24 31.52 L 80.24 32.76 L 91.2 32.76 L 91.2 31.52 L 88.6 31.2 A 506.443 506.443 0 0 1 88.579 29.871 C 88.547 27.743 88.52 25.162 88.52 23.36 L 88.52 16.16 A 14.021 14.021 0 0 1 90.045 14.934 C 91.16 14.166 92.202 13.738 93.138 13.605 A 4.434 4.434 0 0 1 93.76 13.56 C 95.808 13.56 96.813 14.639 96.912 17.717 A 16.327 16.327 0 0 1 96.92 18.24 L 96.92 23.36 C 96.92 25.495 96.885 28.506 96.815 30.72 A 109.536 109.536 0 0 1 96.8 31.16 L 94 31.52 L 94 32.76 L 104.96 32.76 L 104.96 31.52 L 102.24 31.2 A 530.115 530.115 0 0 1 102.218 29.825 C 102.186 27.725 102.16 25.213 102.16 23.36 Z M 280.4 31.28 L 280.4 17.8 L 280.52 11.4 L 280.08 10.96 L 272.36 12.08 L 272.36 13.12 L 275.2 13.64 L 275.12 27.88 A 9.195 9.195 0 0 1 273.069 29.455 A 5.996 5.996 0 0 1 270.16 30.24 C 267.96 30.24 266.72 29.08 266.72 25.56 L 266.72 17.8 L 266.96 11.4 L 266.52 10.96 L 258.6 12 L 258.6 13.12 L 261.6 13.68 L 261.44 25.28 A 21.624 21.624 0 0 0 261.438 25.568 C 261.438 31.008 263.55 33.146 266.948 33.378 A 9.548 9.548 0 0 0 267.6 33.4 A 9.21 9.21 0 0 0 273.9 30.594 A 13.504 13.504 0 0 0 275.16 29.2 L 275.44 33.2 L 283.12 32.76 L 283.12 31.56 L 280.4 31.28 Z M 200.24 11.16 L 199.56 10.72 L 194.48 12.6 A 7.371 7.371 0 0 0 192.21 11.337 C 191.078 10.935 189.748 10.72 188.24 10.72 C 182.621 10.72 179.543 13.658 179.52 17.951 A 9.055 9.055 0 0 0 179.52 18 C 179.52 20.76 180.72 22.96 182.96 24.24 C 180.64 26.28 179.72 27.72 179.72 29.56 A 3.631 3.631 0 0 0 179.994 31.003 C 180.288 31.691 180.81 32.226 181.519 32.648 A 6.805 6.805 0 0 0 182.6 33.16 C 179.8 34.36 178.52 35.92 178.52 37.76 C 178.52 40.76 181.08 43.16 187.92 43.16 C 193.62 43.16 197.353 41.234 198.982 38.579 A 6.255 6.255 0 0 0 199.92 35.28 A 5.059 5.059 0 0 0 197.313 30.505 C 196.034 29.791 194.248 29.4 191.88 29.4 L 186 29.4 A 7.193 7.193 0 0 1 184.99 29.336 C 183.591 29.137 183.02 28.473 182.965 27.384 A 3.594 3.594 0 0 1 182.96 27.2 C 182.96 26.395 183.174 25.712 183.63 24.992 A 6.641 6.641 0 0 1 183.84 24.68 A 10.13 10.13 0 0 0 185.686 25.215 C 186.443 25.361 187.268 25.44 188.16 25.44 A 12.092 12.092 0 0 0 191.629 24.971 C 193.035 24.55 194.175 23.86 195.03 22.958 A 7.028 7.028 0 0 0 196.88 18 C 196.88 16.36 196.44 14.88 195.56 13.72 L 200.24 14.08 L 200.24 11.16 Z M 160.6 31.28 L 160.6 6.68 L 160.72 0.36 L 160.16 0 L 152.08 1.72 L 152.08 2.84 L 155.52 3.12 L 155.52 13.52 C 153.88 11.56 151.96 10.72 149.76 10.72 C 144.28 10.72 140.08 15.04 140.08 22.28 C 140.08 26.318 141.43 29.447 143.605 31.342 A 8.429 8.429 0 0 0 149.24 33.4 A 8.023 8.023 0 0 0 152.407 32.782 A 8.329 8.329 0 0 0 155.44 30.52 L 155.72 33.2 L 163.6 32.76 L 163.6 31.52 L 160.6 31.28 Z M 294 6.72 L 294.16 0.36 L 293.56 0 L 285.64 1.72 L 285.64 2.84 L 288.88 3.12 L 288.88 23.36 A 258.427 258.427 0 0 1 288.876 24.783 C 288.865 26.761 288.834 29.156 288.804 30.992 A 483.956 483.956 0 0 1 288.8 31.2 L 285.88 31.52 L 285.88 32.76 L 293.28 33.24 L 293.92 30.44 A 8.647 8.647 0 0 0 295.931 32.193 A 8.178 8.178 0 0 0 300.32 33.4 C 305.622 33.4 309.252 28.802 309.433 22.421 A 17.72 17.72 0 0 0 309.44 21.92 A 16.494 16.494 0 0 0 308.896 17.561 C 308.462 15.978 307.783 14.651 306.916 13.599 A 7.783 7.783 0 0 0 300.76 10.72 A 8.8 8.8 0 0 0 295.971 12.116 A 10.381 10.381 0 0 0 294 13.76 L 294 6.72 Z M 128.68 11.12 L 128.12 10.76 L 120.44 13.2 L 120.44 14.2 L 123.6 14.52 A 86.82 86.82 0 0 1 123.668 15.732 C 123.72 16.812 123.747 17.848 123.756 19.2 A 186.668 186.668 0 0 1 123.76 20.48 L 123.76 23.36 C 123.76 25.56 123.72 28.88 123.68 31.16 L 120.76 31.52 L 120.76 32.76 L 132.8 32.76 L 132.8 31.52 L 129.12 31.04 A 555.077 555.077 0 0 1 129.096 29.527 C 129.068 27.643 129.044 25.472 129.041 23.802 A 198.654 198.654 0 0 1 129.04 23.36 L 129.04 19.8 C 129.88 17 130.96 15.24 132.64 13.92 L 133.08 14.4 C 134.08 15.56 134.92 16.32 136.24 16.32 A 3.168 3.168 0 0 0 137.31 16.152 C 138.419 15.756 138.906 14.69 139 13.28 C 138.559 11.554 137.31 10.84 135.808 10.734 A 5.82 5.82 0 0 0 135.4 10.72 A 4.444 4.444 0 0 0 134.184 10.895 C 132.146 11.474 130.107 13.48 129.04 16.68 L 128.68 11.12 Z M 107.12 13.04 L 107.12 14.12 L 110.32 14.44 A 1531.993 1531.993 0 0 1 110.366 15.533 C 110.412 16.673 110.453 17.812 110.471 19.183 A 113.224 113.224 0 0 1 110.48 20.64 L 110.48 28.68 C 110.48 33.206 110.533 36.883 110.143 39.173 A 7.295 7.295 0 0 1 109.8 40.52 C 109.6 41.08 109.32 41.48 109 41.8 L 108.12 40.56 A 5.044 5.044 0 0 0 107.287 39.572 A 3.785 3.785 0 0 0 104.64 38.6 A 2.925 2.925 0 0 0 101.787 40.615 A 2.993 2.993 0 0 0 101.68 41.12 A 3.041 3.041 0 0 0 102.507 42.348 C 103.29 43.066 104.606 43.6 106.68 43.6 C 109.04 43.6 111 42.92 112.96 40.8 C 114.816 38.769 115.476 36.493 115.612 31.503 A 85.1 85.1 0 0 0 115.64 29.2 L 115.64 17.36 L 115.8 11.12 L 115.24 10.76 L 107.12 13.04 Z M 224.12 27.84 L 224.12 13.04 L 229.44 13.04 L 229.44 11.36 L 224.16 11.36 L 224.28 5.04 L 220.84 5.04 L 219.12 11.32 L 215.4 11.72 L 215.4 13.04 L 218.84 13.04 L 218.84 23.52 C 218.84 25.12 218.8 26.24 218.8 27.52 C 218.8 31.6 220.84 33.4 224.52 33.4 C 226.632 33.4 228.237 32.773 229.393 31.65 A 6.187 6.187 0 0 0 230.28 30.56 L 229.56 29.8 C 228.512 30.576 227.803 30.976 226.811 30.999 A 3.951 3.951 0 0 1 226.72 31 A 2.852 2.852 0 0 1 225.436 30.732 C 224.603 30.317 224.12 29.397 224.12 27.84 Z M 349.72 33.4 A 10.788 10.788 0 0 0 356.845 30.93 C 359.118 28.983 360.52 25.941 360.52 22 A 12.781 12.781 0 0 0 359.608 17.102 A 10.371 10.371 0 0 0 349.72 10.72 A 10.349 10.349 0 0 0 339.511 17.988 A 13.22 13.22 0 0 0 338.92 22 A 13.517 13.517 0 0 0 339.786 26.933 C 341.372 30.998 344.999 33.324 349.498 33.398 A 13.501 13.501 0 0 0 349.72 33.4 Z M 8.6 23.36 L 8.6 17.36 L 8.68 11.12 L 8.12 10.76 L 0 13.04 L 0 14.12 L 3.24 14.44 C 3.306 16.098 3.345 17.426 3.356 19.29 A 202.092 202.092 0 0 1 3.36 20.52 L 3.36 23.36 C 3.36 25.56 3.32 28.88 3.28 31.16 L 0.36 31.52 L 0.36 32.76 L 11.36 32.76 L 11.36 31.52 L 8.68 31.2 A 506.443 506.443 0 0 1 8.659 29.871 C 8.627 27.743 8.6 25.162 8.6 23.36 Z M 210.84 23.36 L 210.84 17.36 L 210.92 11.12 L 210.36 10.76 L 202.24 13.04 L 202.24 14.12 L 205.48 14.44 C 205.546 16.098 205.585 17.426 205.596 19.29 A 202.092 202.092 0 0 1 205.6 20.52 L 205.6 23.36 C 205.6 25.56 205.56 28.88 205.52 31.16 L 202.6 31.52 L 202.6 32.76 L 213.6 32.76 L 213.6 31.52 L 210.92 31.2 A 506.443 506.443 0 0 1 210.899 29.871 C 210.867 27.743 210.84 25.162 210.84 23.36 Z M 333.24 23.36 L 333.24 17.36 L 333.32 11.12 L 332.76 10.76 L 324.64 13.04 L 324.64 14.12 L 327.88 14.44 C 327.946 16.098 327.985 17.426 327.996 19.29 A 202.092 202.092 0 0 1 328 20.52 L 328 23.36 C 328 25.56 327.96 28.88 327.92 31.16 L 325 31.52 L 325 32.76 L 336 32.76 L 336 31.52 L 333.32 31.2 A 506.443 506.443 0 0 1 333.299 29.871 C 333.267 27.743 333.24 25.162 333.24 23.36 Z M 344.56 22.04 A 30.487 30.487 0 0 0 344.628 24.139 C 344.99 29.364 346.771 31.92 349.72 31.92 C 352.96 31.92 354.88 28.68 354.88 22.04 C 354.88 18.63 354.368 16.118 353.426 14.485 A 4.113 4.113 0 0 0 349.72 12.2 A 3.967 3.967 0 0 0 346.463 13.771 C 345.22 15.339 344.56 18.087 344.56 22.04 Z M 294.08 29.12 L 294.08 14.96 A 9.567 9.567 0 0 1 294.992 14.244 C 296.246 13.384 297.297 13.2 298.4 13.2 A 4.553 4.553 0 0 1 302.481 15.561 C 303.188 16.736 303.653 18.372 303.794 20.518 A 21.933 21.933 0 0 1 303.84 21.96 A 21.001 21.001 0 0 1 303.667 24.775 C 303.039 29.403 300.783 30.84 298.24 30.84 A 5.598 5.598 0 0 1 295.454 30.123 C 295.022 29.883 294.594 29.578 294.166 29.197 A 8.919 8.919 0 0 1 294.08 29.12 Z M 155.32 14.76 L 155.32 29.24 C 154.08 30.4 152.88 30.84 151.44 30.84 A 4.88 4.88 0 0 1 146.929 28.223 C 146.244 27.005 145.808 25.324 145.704 23.101 A 22.758 22.758 0 0 1 145.68 22.04 C 145.68 18.291 146.555 15.953 147.895 14.638 A 5.006 5.006 0 0 1 151.52 13.24 A 5.182 5.182 0 0 1 153.597 13.664 C 154.16 13.905 154.732 14.261 155.32 14.76 Z M 187.2 33.84 L 191.84 33.84 C 192.959 33.84 193.788 34.07 194.384 34.458 A 3.073 3.073 0 0 1 195.68 37.2 A 3.349 3.349 0 0 1 194.217 39.934 C 192.944 40.89 190.843 41.48 187.92 41.48 C 184.28 41.48 182 39.92 182 36.96 C 182 35.654 182.383 34.731 183.182 33.736 A 9.563 9.563 0 0 1 183.36 33.52 A 10.089 10.089 0 0 0 184.798 33.755 C 185.356 33.808 186.001 33.833 186.823 33.839 A 55.743 55.743 0 0 0 187.2 33.84 Z M 188.12 24.08 C 185.64 24.08 184.28 21.76 184.28 18.08 A 11.116 11.116 0 0 1 184.502 15.778 C 184.662 15.025 184.907 14.371 185.228 13.83 A 3.379 3.379 0 0 1 188.24 12.04 C 190.246 12.04 191.603 13.581 192.022 16.151 A 11.259 11.259 0 0 1 192.16 17.96 A 11.263 11.263 0 0 1 191.929 20.325 C 191.763 21.094 191.51 21.761 191.175 22.31 A 3.437 3.437 0 0 1 188.12 24.08 Z M 171.12 33.4 C 172.96 33.4 174.4 31.88 174.4 30.12 A 3.312 3.312 0 0 0 171.125 26.76 A 3.3 3.3 0 0 0 171.12 26.76 A 3.279 3.279 0 0 0 168.494 28.052 A 3.395 3.395 0 0 0 167.8 30.12 A 3.302 3.302 0 0 0 171.01 33.398 A 3.469 3.469 0 0 0 171.12 33.4 Z M 316.76 33.4 C 318.6 33.4 320.04 31.88 320.04 30.12 A 3.312 3.312 0 0 0 316.765 26.76 A 3.3 3.3 0 0 0 316.76 26.76 A 3.279 3.279 0 0 0 314.134 28.052 A 3.395 3.395 0 0 0 313.44 30.12 A 3.302 3.302 0 0 0 316.65 33.398 A 3.469 3.469 0 0 0 316.76 33.4 Z M 5.84 6.28 A 3.284 3.284 0 0 0 8.105 5.408 A 2.838 2.838 0 0 0 9 3.32 A 2.931 2.931 0 0 0 8.475 1.61 C 7.949 0.864 7.079 0.397 6.093 0.329 A 3.655 3.655 0 0 0 5.84 0.32 A 3.277 3.277 0 0 0 3.588 1.17 C 3.077 1.648 2.742 2.308 2.688 3.095 A 3.294 3.294 0 0 0 2.68 3.32 C 2.68 5.04 4.12 6.28 5.84 6.28 Z M 208.08 6.28 A 3.284 3.284 0 0 0 210.345 5.408 A 2.838 2.838 0 0 0 211.24 3.32 A 2.931 2.931 0 0 0 210.715 1.61 C 210.189 0.864 209.319 0.397 208.333 0.329 A 3.655 3.655 0 0 0 208.08 0.32 A 3.277 3.277 0 0 0 205.828 1.17 C 205.317 1.648 204.982 2.308 204.928 3.095 A 3.294 3.294 0 0 0 204.92 3.32 C 204.92 5.04 206.36 6.28 208.08 6.28 Z M 330.48 6.28 A 3.284 3.284 0 0 0 332.745 5.408 A 2.838 2.838 0 0 0 333.64 3.32 A 2.931 2.931 0 0 0 333.115 1.61 C 332.589 0.864 331.719 0.397 330.733 0.329 A 3.655 3.655 0 0 0 330.48 0.32 A 3.277 3.277 0 0 0 328.228 1.17 C 327.717 1.648 327.382 2.308 327.328 3.095 A 3.294 3.294 0 0 0 327.32 3.32 C 327.32 5.04 328.76 6.28 330.48 6.28 Z M 116.079 3.415 A 3.234 3.234 0 0 0 116.08 3.32 C 116.08 1.52 114.72 0.32 112.96 0.32 A 3.236 3.236 0 0 0 110.85 1.061 C 110.302 1.527 109.934 2.191 109.856 2.993 A 3.349 3.349 0 0 0 109.84 3.32 A 2.859 2.859 0 0 0 110.742 5.433 C 111.29 5.948 112.044 6.26 112.879 6.279 A 3.565 3.565 0 0 0 112.96 6.28 C 114.687 6.28 116.029 5.086 116.079 3.415 Z" vector-effect="non-scaling-stroke"/></g></svg>